ffmpeg started on 2016-12-06 at 11:46:15
Report written to "Output/x264/results/ffmpeg/sintelfast13000k.log"
Command line:
Tools/ffmpeg/ffmpeg -benchmark -y -i Input/y4m/sintel.y4m -c:v libx264 -preset fast -b:v 13000k -an Output/x264/encoded/sintelfast13000k.mkv
ffmpeg version N-82227-gdb23fde Copyright (c) 2000-2016 the FFmpeg developers
  built with gcc 5.4.0 (Ubuntu 5.4.0-6ubuntu1~16.04.2) 20160609
  configuration: --prefix=/home/jaroslav/ffmpeg_build --pkg-config-flags=--static --extra-cflags=-I/home/jaroslav/ffmpeg_build/include --extra-ldflags=-L/home/jaroslav/ffmpeg_build/lib --bindir=/home/jaroslav/bin --enable-gpl --enable-libass --enable-libfdk-aac --enable-libfreetype --enable-libmp3lame --enable-libopus --enable-libtheora --enable-libvorbis --enable-libvpx --enable-libx264 --enable-libx265 --enable-nvenc --enable-libmfx --enable-libxvid --enable-libgsm --enable-libopencore-amrnb --enable-version3 --enable-nonfree
  libavutil      55. 35.100 / 55. 35.100
  libavcodec     57. 66.101 / 57. 66.101
  libavformat    57. 57.100 / 57. 57.100
  libavdevice    57.  2.100 / 57.  2.100
  libavfilter     6. 66.100 /  6. 66.100
  libswscale      4.  3.100 /  4.  3.100
  libswresample   2.  4.100 /  2.  4.100
  libpostproc    54.  2.100 / 54.  2.100
Input #0, yuv4mpegpipe, from 'Input/y4m/sintel.y4m':
  Duration: 00:00:20.83, start: 0.000000, bitrate: 2057307 kb/s
    Stream #0:0: Video: rawvideo (I420 / 0x30323449), yuv420p(progressive), 4096x1744, SAR 1:1 DAR 256:109, 24 fps, 24 tbr, 24 tbn, 24 tbc
[libx264 @ 0x2ca81c0] using SAR=1/1
[libx264 @ 0x2ca81c0] using cpu capabilities: MMX2 SSE2Fast SSSE3 SSE4.2 AVX FMA3 AVX2 LZCNT BMI2
[libx264 @ 0x2ca81c0] profile High, level 5.1
[libx264 @ 0x2ca81c0] 264 - core 148 - H.264/MPEG-4 AVC codec - Copyleft 2003-2016 - http://www.videolan.org/x264.html - options: cabac=1 ref=2 deblock=1:0:0 analyse=0x3:0x113 me=hex subme=6 psy=1 psy_rd=1.00:0.00 mixed_ref=1 me_range=16 chroma_me=1 trellis=1 8x8dct=1 cqm=0 deadzone=21,11 fast_pskip=1 chroma_qp_offset=-2 threads=6 lookahead_threads=1 sliced_threads=0 nr=0 decimate=1 interlaced=0 bluray_compat=0 constrained_intra=0 bframes=3 b_pyramid=2 b_adapt=1 b_bias=0 direct=1 weightb=1 open_gop=0 weightp=1 keyint=250 keyint_min=24 scenecut=40 intra_refresh=0 rc_lookahead=30 rc=abr mbtree=1 bitrate=13000 ratetol=1.0 qcomp=0.60 qpmin=0 qpmax=69 qpstep=4 ip_ratio=1.40 aq=1:1.00
Output #0, matroska, to 'Output/x264/encoded/sintelfast13000k.mkv':
  Metadata:
    encoder         : Lavf57.57.100
    Stream #0:0: Video: h264 (libx264) (H264 / 0x34363248), yuv420p, 4096x1744 [SAR 1:1 DAR 256:109], q=-1--1, 13000 kb/s, 24 fps, 1k tbn, 24 tbc
    Metadata:
      encoder         : Lavc57.66.101 libx264
    Side data:
      cpb: bitrate max/min/avg: 0/0/13000000 buffer size: 0 vbv_delay: -1
Stream mapping:
  Stream #0:0 -> #0:0 (rawvideo (native) -> h264 (libx264))
Press [q] to stop, [?] for help
frame=    9 fps=0.0 q=0.0 size=       0kB time=00:00:00.00 bitrate=N/A speed=   0x    frame=   18 fps= 17 q=0.0 size=       0kB time=00:00:00.00 bitrate=N/A speed=   0x    frame=   27 fps= 17 q=0.0 size=       0kB time=00:00:00.00 bitrate=N/A speed=   0x    frame=   36 fps= 17 q=0.0 size=       0kB time=00:00:00.00 bitrate=N/A speed=   0x    frame=   37 fps=9.8 q=0.0 size=       0kB time=00:00:00.00 bitrate=N/A speed=   0x    frame=   38 fps=5.6 q=0.0 size=       0kB time=00:00:00.00 bitrate=N/A speed=   0x    frame=   39 fps=3.9 q=0.0 size=       0kB time=00:00:00.00 bitrate=N/A speed=   0x    frame=   40 fps=3.6 q=0.0 size=       0kB time=00:00:00.00 bitrate=N/A speed=   0x    frame=   45 fps=3.8 q=26.0 size=       1kB time=00:00:00.08 bitrate=  69.9kbits/s speed=0.00717x    frame=   48 fps=3.9 q=40.0 size=       1kB time=00:00:00.20 bitrate=  28.1kbits/s speed=0.0169x    frame=   51 fps=4.0 q=40.0 size=       1kB time=00:00:00.33 bitrate=  17.6kbits/s speed=0.026x    frame=   57 fps=4.2 q=40.0 size=       1kB time=00:00:00.58 bitrate=  10.1kbits/s speed=0.0432x    frame=   64 fps=4.5 q=39.0 size=       1kB time=00:00:00.87 bitrate=   6.7kbits/s speed=0.0616x    frame=   71 fps=4.8 q=39.0 size=       1kB time=00:00:01.16 bitrate=   5.0kbits/s speed=0.0785x    frame=   77 fps=5.0 q=38.0 size=       1kB time=00:00:01.41 bitrate=   4.1kbits/s speed=0.0922x    frame=   83 fps=5.2 q=37.0 size=       1kB time=00:00:01.66 bitrate=   3.5kbits/s speed=0.105x    frame=   88 fps=5.4 q=37.0 size=       1kB time=00:00:01.87 bitrate=   3.1kbits/s speed=0.114x    frame=   94 fps=5.5 q=36.0 size=       1kB time=00:00:02.12 bitrate=   2.8kbits/s speed=0.125x    frame=   99 fps=5.6 q=36.0 size=       1kB time=00:00:02.33 bitrate=   2.5kbits/s speed=0.133x    frame=  103 fps=5.7 q=36.0 size=    5170kB time=00:00:02.50 bitrate=16935.0kbits/s speed=0.138x    frame=  109 fps=5.8 q=36.0 size=    5170kB time=00:00:02.75 bitrate=15396.0kbits/s speed=0.147x    frame=  114 fps=5.9 q=35.0 size=    5170kB time=00:00:02.95 bitrate=14313.8kbits/s speed=0.152x    frame=  120 fps=6.0 q=35.0 size=    5170kB time=00:00:03.20 bitrate=13198.7kbits/s speed=0.16x    frame=  125 fps=6.1 q=35.0 size=    5170kB time=00:00:03.41 bitrate=12391.6kbits/s speed=0.166x    frame=  131 fps=6.1 q=35.0 size=    5170kB time=00:00:03.66 bitrate=11547.0kbits/s speed=0.172x    frame=  139 fps=6.3 q=34.0 size=    6841kB time=00:00:04.00 bitrate=14006.8kbits/s speed=0.183x    frame=  143 fps=6.3 q=34.0 size=    6841kB time=00:00:04.16 bitrate=13445.6kbits/s speed=0.184x    frame=  149 fps=6.4 q=34.0 size=    6841kB time=00:00:04.41 bitrate=12684.8kbits/s speed=0.189x    frame=  156 fps=6.5 q=34.0 size=    6841kB time=00:00:04.70 bitrate=11900.9kbits/s speed=0.197x    frame=  162 fps=6.6 q=34.0 size=    6841kB time=00:00:04.95 bitrate=11300.9kbits/s speed=0.201x    frame=  167 fps=6.6 q=34.0 size=    6841kB time=00:00:05.16 bitrate=10843.9kbits/s speed=0.205x    frame=  173 fps=6.7 q=34.0 size=    6841kB time=00:00:05.41 bitrate=10343.6kbits/s speed=0.21x    frame=  177 fps=6.7 q=33.0 size=    6841kB time=00:00:05.58 bitrate=10036.1kbits/s speed=0.213x    frame=  183 fps=6.8 q=33.0 size=    6841kB time=00:00:05.83 bitrate=9606.0kbits/s speed=0.217x    frame=  189 fps=6.9 q=33.0 size=    6841kB time=00:00:06.08 bitrate=9211.3kbits/s speed=0.222x    frame=  194 fps=6.9 q=33.0 size=    6841kB time=00:00:06.29 bitrate=8905.4kbits/s speed=0.225x    frame=  200 fps=7.0 q=33.0 size=   10237kB time=00:00:06.54 bitrate=12817.5kbits/s speed=0.229x    frame=  206 fps=7.1 q=33.0 size=   10237kB time=00:00:06.79 bitrate=12345.8kbits/s speed=0.234x    frame=  211 fps=7.1 q=33.0 size=   10237kB time=00:00:07.00 bitrate=11979.0kbits/s speed=0.236x    frame=  216 fps=7.1 q=33.0 size=   10237kB time=00:00:07.20 bitrate=11633.3kbits/s speed=0.239x    frame=  222 fps=7.2 q=33.0 size=   10237kB time=00:00:07.45 bitrate=11243.4kbits/s speed=0.242x    frame=  230 fps=7.3 q=32.0 size=   11653kB time=00:00:07.79 bitrate=12250.0kbits/s speed=0.246x    frame=  237 fps=7.3 q=32.0 size=   11653kB time=00:00:08.08 bitrate=11809.1kbits/s speed=0.25x    frame=  244 fps=7.4 q=32.0 size=   11653kB time=00:00:08.37 bitrate=11397.4kbits/s speed=0.253x    frame=  250 fps=7.4 q=32.0 size=   11653kB time=00:00:08.62 bitrate=11067.1kbits/s speed=0.256x    frame=  255 fps=7.4 q=32.0 size=   11653kB time=00:00:08.83 bitrate=10806.5kbits/s speed=0.258x    frame=  260 fps=7.5 q=32.0 size=   11653kB time=00:00:09.04 bitrate=10556.7kbits/s speed=0.26x    frame=  265 fps=7.5 q=32.0 size=   11653kB time=00:00:09.25 bitrate=10319.4kbits/s speed=0.262x    frame=  270 fps=7.5 q=32.0 size=   11653kB time=00:00:09.45 bitrate=10092.4kbits/s speed=0.264x    frame=  274 fps=7.5 q=32.0 size=   11653kB time=00:00:09.62 bitrate=9917.4kbits/s speed=0.265x    frame=  281 fps=7.6 q=32.0 size=   11653kB time=00:00:09.91 bitrate=9625.4kbits/s speed=0.268x    frame=  289 fps=7.7 q=31.0 size=   11653kB time=00:00:10.25 bitrate=9312.7kbits/s speed=0.273x    frame=  293 fps=7.7 q=31.0 size=   11653kB time=00:00:10.41 bitrate=9163.4kbits/s speed=0.273x    frame=  300 fps=7.7 q=31.0 size=   11653kB time=00:00:10.70 bitrate=8914.4kbits/s speed=0.276x    frame=  303 fps=7.7 q=31.0 size=   11653kB time=00:00:10.83 bitrate=8811.6kbits/s speed=0.275x    frame=  311 fps=7.8 q=31.0 size=   16209kB time=00:00:11.16 bitrate=11889.6kbits/s speed=0.28x    frame=  316 fps=7.8 q=31.0 size=   16209kB time=00:00:11.37 bitrate=11672.2kbits/s speed=0.282x    frame=  323 fps=7.9 q=31.0 size=   16209kB time=00:00:11.66 bitrate=11380.1kbits/s speed=0.285x    frame=  329 fps=7.9 q=31.0 size=   16209kB time=00:00:11.91 bitrate=11141.4kbits/s speed=0.287x    frame=  335 fps=8.0 q=31.0 size=   16209kB time=00:00:12.16 bitrate=10912.5kbits/s speed=0.289x    frame=  341 fps=8.0 q=30.0 size=   16209kB time=00:00:12.41 bitrate=10692.8kbits/s speed=0.292x    frame=  348 fps=8.1 q=30.0 size=   16209kB time=00:00:12.70 bitrate=10447.9kbits/s speed=0.295x    frame=  356 fps=8.2 q=30.0 size=   16209kB time=00:00:13.04 bitrate=10180.4kbits/s speed=0.299x    frame=  364 fps=8.2 q=30.0 size=   16209kB time=00:00:13.37 bitrate=9927.0kbits/s speed=0.302x    frame=  371 fps=8.3 q=29.0 size=   16209kB time=00:00:13.66 bitrate=9714.9kbits/s speed=0.305x    frame=  378 fps=8.4 q=29.0 size=   16209kB time=00:00:13.95 bitrate=9512.4kbits/s speed=0.308x    frame=  384 fps=8.4 q=29.0 size=   16209kB time=00:00:14.20 bitrate=9345.0kbits/s speed=0.31x    frame=  391 fps=8.4 q=28.0 size=   16209kB time=00:00:14.50 bitrate=9156.8kbits/s speed=0.313x    frame=  399 fps=8.5 q=28.0 size=   16209kB time=00:00:14.83 bitrate=8951.3kbits/s speed=0.316x    frame=  405 fps=8.5 q=28.0 size=   20381kB time=00:00:15.08 bitrate=11068.8kbits/s speed=0.318x    frame=  409 fps=8.5 q=28.0 size=   20381kB time=00:00:15.25 bitrate=10947.6kbits/s speed=0.318x    frame=  413 fps=8.5 q=28.0 size=   20381kB time=00:00:15.41 bitrate=10829.0kbits/s speed=0.318x    frame=  420 fps=8.5 q=28.0 size=   20381kB time=00:00:15.70 bitrate=10628.4kbits/s speed=0.319x    frame=  427 fps=8.6 q=28.0 size=   20381kB time=00:00:16.00 bitrate=10434.4kbits/s speed=0.321x    frame=  432 fps=8.5 q=28.0 size=   20381kB time=00:00:16.20 bitrate=10300.5kbits/s speed=0.321x    frame=  438 fps=8.6 q=28.0 size=   20381kB time=00:00:16.45 bitrate=10144.1kbits/s speed=0.322x    frame=  443 fps=8.6 q=28.0 size=   20381kB time=00:00:16.66 bitrate=10016.9kbits/s speed=0.322x    frame=  447 fps=8.6 q=28.0 size=   20381kB time=00:00:16.83 bitrate=9918.1kbits/s speed=0.322x    frame=  453 fps=8.6 q=28.0 size=   20381kB time=00:00:17.08 bitrate=9773.0kbits/s speed=0.324x    frame=  461 fps=8.6 q=28.0 size=   24253kB time=00:00:17.41 bitrate=11406.8kbits/s speed=0.326x    frame=  466 fps=8.6 q=28.0 size=   24253kB time=00:00:17.62 bitrate=11272.2kbits/s speed=0.327x    frame=  472 fps=8.6 q=28.0 size=   24253kB time=00:00:17.87 bitrate=11114.6kbits/s speed=0.327x    frame=  480 fps=8.7 q=28.0 size=   24253kB time=00:00:18.20 bitrate=10911.3kbits/s speed=0.329x    frame=  488 fps=8.7 q=28.0 size=   24253kB time=00:00:18.54 bitrate=10714.8kbits/s speed=0.331x    frame=  495 fps=8.7 q=28.0 size=   24253kB time=00:00:18.83 bitrate=10549.2kbits/s speed=0.333x    frame=  500 fps=8.7 q=28.0 size=   24253kB time=00:00:19.04 bitrate=10433.5kbits/s speed=0.333x    frame=  500 fps=8.3 q=-1.0 Lsize=   29758kB time=00:00:20.70 bitrate=11771.6kbits/s speed=0.345x    
video:29753kB audio:0kB subtitle:0kB other streams:0kB global headers:0kB muxing overhead: 0.016585%
bench: utime=190.764s
bench: maxrss=1329632kB
[libx264 @ 0x2ca81c0] frame I:8     Avg QP:22.72  size:196633
[libx264 @ 0x2ca81c0] frame P:269   Avg QP:28.03  size: 69709
[libx264 @ 0x2ca81c0] frame B:223   Avg QP:25.54  size: 45479
[libx264 @ 0x2ca81c0] consecutive B-frames: 37.0%  8.4%  6.6% 48.0%
[libx264 @ 0x2ca81c0] mb I  I16..4: 20.5% 73.0%  6.5%
[libx264 @ 0x2ca81c0] mb P  I16..4: 18.0% 24.0%  0.6%  P16..4: 27.6%  4.1%  1.4%  0.0%  0.0%    skip:24.3%
[libx264 @ 0x2ca81c0] mb B  I16..4:  6.8%  7.6%  0.8%  B16..8: 20.4%  3.5%  0.2%  direct:11.1%  skip:49.7%  L0:43.5% L1:49.8% BI: 6.8%
[libx264 @ 0x2ca81c0] final ratefactor: 25.03
[libx264 @ 0x2ca81c0] 8x8 transform intra:55.8% inter:84.0%
[libx264 @ 0x2ca81c0] coded y,uvDC,uvAC intra: 22.0% 30.3% 3.4% inter: 10.3% 12.0% 0.1%
[libx264 @ 0x2ca81c0] i16 v,h,dc,p: 30% 29% 10% 31%
[libx264 @ 0x2ca81c0] i8 v,h,dc,ddl,ddr,vr,hd,vl,hu: 24% 20% 31%  4%  4%  4%  5%  4%  4%
[libx264 @ 0x2ca81c0] i4 v,h,dc,ddl,ddr,vr,hd,vl,hu: 18% 23% 10%  7% 10%  8% 11%  5%  8%
[libx264 @ 0x2ca81c0] i8c dc,h,v,p: 67% 16% 15%  2%
[libx264 @ 0x2ca81c0] Weighted P-Frames: Y:0.7% UV:0.0%
[libx264 @ 0x2ca81c0] ref P L0: 85.8% 14.2%
[libx264 @ 0x2ca81c0] ref B L0: 87.9% 12.1%
[libx264 @ 0x2ca81c0] ref B L1: 97.1%  2.9%
[libx264 @ 0x2ca81c0] kb/s:11699.17
